<?xml version="1.0" encoding="iso-8859-1"?>
<!-- Generator: Adobe Illustrator 19.0.0, SVG Export Plug-In . SVG Version: 6.00 Build 0)  -->
<svg version="1.1" id="Capa_1" xmlns="http://www.w3.org/2000/svg" xmlns:xlink="http://www.w3.org/1999/xlink" x="0px" y="0px"
	 viewBox="0 0 490.667 490.667" style="enable-background:new 0 0 490.667 490.667;" xml:space="preserve">
<g>
	<g>
		<g>
			<path d="M74.667,384H160c5.888,0,10.667-4.779,10.667-10.667s-4.779-10.667-10.667-10.667H85.333V320h53.333
				c5.888,0,10.667-4.779,10.667-10.667s-4.779-10.667-10.667-10.667H85.333V256H160c5.888,0,10.667-4.779,10.667-10.667
				s-4.779-10.667-10.667-10.667H74.667c-5.888,0-10.667,4.779-10.667,10.667v128C64,379.221,68.779,384,74.667,384z"/>
			<path d="M233.024,308.565l-39.232,58.837c-3.264,4.885-1.941,11.52,2.965,14.784c1.813,1.237,3.861,1.813,5.909,1.813
				c3.435,0,6.805-1.664,8.875-4.757l34.475-51.691l33.173,48.469c2.091,3.029,5.419,4.651,8.811,4.651
				c2.091,0,4.181-0.597,6.016-1.877c4.885-3.307,6.101-9.963,2.795-14.805l-38.037-55.595l38.101-57.152
				c3.264-4.885,1.941-11.52-2.965-14.784c-4.864-3.221-11.499-1.963-14.784,2.965l-33.344,50.005l-34.304-50.112
				c-3.349-4.864-10.005-6.08-14.827-2.773c-4.885,3.307-6.101,9.963-2.795,14.805L233.024,308.565z"/>
			<path d="M330.667,384H416c5.888,0,10.667-4.779,10.667-10.667s-4.779-10.667-10.667-10.667h-74.667V320h53.333
				c5.888,0,10.667-4.779,10.667-10.667s-4.779-10.667-10.667-10.667h-53.333V256H416c5.888,0,10.667-4.779,10.667-10.667
				s-4.779-10.667-10.667-10.667h-85.333c-5.888,0-10.667,4.779-10.667,10.667v128C320,379.221,324.779,384,330.667,384z"/>
			<path d="M458.667,192h-32V10.667C426.667,4.779,421.888,0,416,0H181.333c-0.491,0-0.917,0.213-1.387,0.277
				c-0.448,0.064-0.832,0.128-1.28,0.256c-1.813,0.469-3.52,1.237-4.885,2.581L67.115,109.781c-1.323,1.344-2.091,3.051-2.581,4.864
				c-0.107,0.448-0.192,0.832-0.256,1.301c-0.064,0.469-0.277,0.896-0.277,1.387V192H32c-5.888,0-10.667,4.779-10.667,10.667V416
				c0,5.888,4.779,10.667,10.667,10.667h32V480c0,5.888,4.779,10.667,10.667,10.667H416c5.888,0,10.667-4.779,10.667-10.667v-53.333
				h32c5.888,0,10.667-4.779,10.667-10.667V202.667C469.333,196.779,464.555,192,458.667,192z M170.667,36.416v70.251h-70.251
				L170.667,36.416z M85.333,128h96c5.888,0,10.667-4.779,10.667-10.667v-96h213.333V192h-320V128z M405.333,469.333h-320v-42.667
				h320V469.333z M448,405.333H42.667v-192H448V405.333z"/>
		</g>
	</g>
</g>
<g>
</g>
<g>
</g>
<g>
</g>
<g>
</g>
<g>
</g>
<g>
</g>
<g>
</g>
<g>
</g>
<g>
</g>
<g>
</g>
<g>
</g>
<g>
</g>
<g>
</g>
<g>
</g>
<g>
</g>
</svg>
