<?xml version="1.0" ?><svg enable-background="new 0 0 32 32" height="32px" version="1.1" viewBox="0 0 32 32" width="32px" xml:space="preserve" xmlns="http://www.w3.org/2000/svg" xmlns:xlink="http://www.w3.org/1999/xlink"><g id="box"><rect fill="none" height="32" width="32"/></g><g id="box_1_"/><g id="_x31_"/><g id="_x32_"/><g id="_x33_"/><g id="_x34_"/><g id="_x35_"/><g id="_x36_"/><g id="_x37_"/><g id="_x38_"/><g id="_x39_"/><g id="_x31_0"/><g id="_x31_1"/><g id="_x31_2"/><g id="_x31_3"/><g id="_x31_4"/><g id="_x31_5"/><g id="_x31_6"/><g id="_x31_7"/><g id="_x31_8"/><g id="_x31_9"/><g id="_x32_0"/><g id="_x32_1"/><g id="_x32_2"/><g id="_x32_3"/><g id="_x32_4"/><g id="_x32_5"/><g id="_x32_6"/><g id="_x32_7"/><g id="_x32_8"/><g id="_x32_9"/><g id="_x33_0"/><g id="_x33_1"/><g id="_x33_2"/><g id="_x33_3"/><g id="_x33_4"/><g id="_x33_5"/><g id="_x33_6"/><g id="_x33_7"/><g id="_x33_8"/><g id="_x33_9"/><g id="_x34_0"/><g id="_x34_1"/><g id="_x34_2"/><g id="_x34_3"/><g id="_x34_4"><g><path d="M25,31H7c-1.103,0-2-0.897-2-2V3c0-1.103,0.897-2,2-2h11.606c0.534,0,1.036,0.208,1.414,0.586l6.394,6.395    C26.792,8.358,27,8.86,27,9.395V29C27,30.103,26.103,31,25,31z M7,3v26h18V9.395L18.606,3H7z"/></g><g><path d="M26.02,10H20c-1.103,0-2-0.897-2-2V1h1c0.552,0,1.01,0.447,1.01,1c0,0.049-0.003,0.097-0.01,0.144V8h6.02    c0.552,0,1,0.447,1,1S26.572,10,26.02,10z"/></g><g><path d="M21,15H11c-0.552,0-1-0.447-1-1s0.448-1,1-1h10c0.552,0,1,0.447,1,1S21.552,15,21,15z"/></g><g><path d="M21,19H11c-0.552,0-1-0.447-1-1s0.448-1,1-1h10c0.552,0,1,0.447,1,1S21.552,19,21,19z"/></g><g><path d="M21,23H11c-0.552,0-1-0.447-1-1s0.448-1,1-1h10c0.552,0,1,0.447,1,1S21.552,23,21,23z"/></g></g><g id="_x34_5"/><g id="_x34_6"/><g id="_x34_7"/><g id="_x34_8"/><g id="_x34_9"/><g id="Layer_52"/></svg>