<?xml version="1.0" ?><svg data-name="Layer 1" height="24" id="Layer_1" viewBox="0 0 24 24" width="24" xmlns="http://www.w3.org/2000/svg"><title/><path d="M18.5,4H8.5a.5.5,0,0,0-.354.147l-4,4A.5.5,0,0,0,4,8.5v10A2.5,2.5,0,0,0,6.5,21h12A2.5,2.5,0,0,0,21,18.5V6.5A2.5,2.5,0,0,0,18.5,4ZM8,5.707V6.5A1.5,1.5,0,0,1,6.5,8H5.707ZM20,18.5A1.5,1.5,0,0,1,18.5,20H6.5A1.5,1.5,0,0,1,5,18.5V9H6.5A2.5,2.5,0,0,0,9,6.5V5h9.5A1.5,1.5,0,0,1,20,6.5Zm-9-8V11a.5.5,0,0,1-1,0v-.5a.5.5,0,0,0-.5-.5h-1a.5.5,0,0,0-.5.5v4a.5.5,0,0,0,.5.5h1a.5.5,0,0,0,.5-.5v-1H9.5a.5.5,0,0,1,0-1h1a.5.5,0,0,1,.5.5v1.5A1.5,1.5,0,0,1,9.5,16h-1A1.5,1.5,0,0,1,7,14.5v-4A1.5,1.5,0,0,1,8.5,9h1A1.5,1.5,0,0,1,11,10.5Zm2.5-.5v5a.5.5,0,0,1,0,1h-1a.5.5,0,0,1,0-1V10a.5.5,0,0,1,0-1h1a.5.5,0,0,1,0,1ZM18,9.5a.5.5,0,0,1-.5.5h-1a.5.5,0,0,0-.5.5v2h1a.5.5,0,0,1,0,1H16v2a.5.5,0,0,1-1,0v-5A1.5,1.5,0,0,1,16.5,9h1A.5.5,0,0,1,18,9.5Z"/></svg>