<?xml version="1.0" ?><svg data-name="Layer 1" id="Layer_1" viewBox="0 0 100 100" xmlns="http://www.w3.org/2000/svg"><title/><path d="M21,93.27a14.51,14.51,0,1,1,14.5-14.51A14.53,14.53,0,0,1,21,93.27Zm0-25.39A10.88,10.88,0,1,0,31.87,78.76,10.89,10.89,0,0,0,21,67.88Z"/><path d="M79,93.27A14.51,14.51,0,1,1,93.52,78.76,14.52,14.52,0,0,1,79,93.27Zm0-25.39A10.88,10.88,0,1,0,89.89,78.76,10.89,10.89,0,0,0,79,67.88Z"/><path d="M91.71,80.57a1.81,1.81,0,0,1-1.82-1.81V10.59L35.49,29.41V78.76a1.81,1.81,0,1,1-3.62,0V28.12a1.81,1.81,0,0,1,1.22-1.71l58-20.08a1.83,1.83,0,0,1,1.65.24A1.8,1.8,0,0,1,93.52,8V78.76A1.81,1.81,0,0,1,91.71,80.57Z"/><path d="M33.68,46.12a1.81,1.81,0,0,1-.6-3.52l58-20.38a1.81,1.81,0,1,1,1.21,3.42L34.28,46A1.8,1.8,0,0,1,33.68,46.12Z"/></svg>