<?xml version="1.0" encoding="iso-8859-1"?>
<!-- Generator: Adobe Illustrator 19.0.0, SVG Export Plug-In . SVG Version: 6.00 Build 0)  -->
<svg version="1.1" id="Layer_1" xmlns="http://www.w3.org/2000/svg" xmlns:xlink="http://www.w3.org/1999/xlink" x="0px" y="0px"
	 viewBox="0 0 512 512" style="enable-background:new 0 0 512 512;" xml:space="preserve">
<g>
	<g>
		<g>
			<rect x="85.333" y="192" width="170.667" height="42.667"/>
			<rect x="85.333" y="277.333" width="128" height="42.667"/>
			<path d="M42.667,42.667H256V128h85.333v85.333H384V97.835L286.165,0H42.667C19.136,0,0,19.157,0,42.667v384
				c0,23.531,19.136,42.667,42.667,42.667h256v-42.667h-256V42.667z"/>
			<path d="M426.667,256c-47.061,0-85.333,38.272-85.333,85.333H384c0-23.552,19.136-42.667,42.667-42.667
				s42.667,19.115,42.667,42.667c0,23.531-19.136,42.667-42.667,42.667h-21.333v64H448v-24.021c36.757-9.515,64-42.965,64-82.645
				C512,294.272,473.728,256,426.667,256z"/>
			<circle cx="426.667" cy="490.667" r="21.333"/>
		</g>
	</g>
</g>
<g>
</g>
<g>
</g>
<g>
</g>
<g>
</g>
<g>
</g>
<g>
</g>
<g>
</g>
<g>
</g>
<g>
</g>
<g>
</g>
<g>
</g>
<g>
</g>
<g>
</g>
<g>
</g>
<g>
</g>
</svg>
