<?xml version="1.0" encoding="utf-8"?>
<!-- Generator: Adobe Illustrator 19.2.0, SVG Export Plug-In . SVG Version: 6.00 Build 0)  -->
<svg version="1.1" id="Layer_1" xmlns="http://www.w3.org/2000/svg" xmlns:xlink="http://www.w3.org/1999/xlink" x="0px" y="0px"
	 viewBox="0 0 68 68" style="enable-background:new 0 0 68 68;" xml:space="preserve">
<style type="text/css">
	.st0{fill:none;stroke:#000000;stroke-width:2;stroke-linecap:round;stroke-linejoin:round;stroke-miterlimit:10;}
</style>
<g>
	<rect x="2" y="5.6" class="st0" width="64" height="56.7"/>
	<rect x="11" y="5.6" class="st0" width="46" height="56.7"/>
	<g>
		<line class="st0" x1="2" y1="12.6" x2="11" y2="12.6"/>
		<line class="st0" x1="2" y1="19.7" x2="11" y2="19.7"/>
		<line class="st0" x1="2" y1="26.9" x2="11" y2="26.9"/>
		<line class="st0" x1="2" y1="34" x2="11" y2="34"/>
		<line class="st0" x1="2" y1="41.1" x2="11" y2="41.1"/>
		<line class="st0" x1="2" y1="48.3" x2="11" y2="48.3"/>
		<line class="st0" x1="2" y1="55.4" x2="11" y2="55.4"/>
	</g>
	<g>
		<line class="st0" x1="57" y1="12.6" x2="66" y2="12.6"/>
		<line class="st0" x1="57" y1="19.7" x2="66" y2="19.7"/>
		<line class="st0" x1="57" y1="26.9" x2="66" y2="26.9"/>
		<line class="st0" x1="57" y1="34" x2="66" y2="34"/>
		<line class="st0" x1="57" y1="41.1" x2="66" y2="41.1"/>
		<line class="st0" x1="57" y1="48.3" x2="66" y2="48.3"/>
		<line class="st0" x1="57" y1="55.4" x2="66" y2="55.4"/>
	</g>
	<circle class="st0" cx="34" cy="33.5" r="12.8"/>
	<g>
		<polygon class="st0" points="30.8,28.6 30.8,38.4 40.1,33.5 		"/>
	</g>
</g>
</svg>
