<?xml version="1.0" ?><svg style="enable-background:new 0 0 32 32;" version="1.1" viewBox="0 0 32 32" xml:space="preserve" xmlns="http://www.w3.org/2000/svg" xmlns:xlink="http://www.w3.org/1999/xlink"><style type="text/css">
	.st0{stroke:#000000;stroke-miterlimit:10;}
	.st1{fill:none;}
</style><g id="Layer_3"/><g id="grid"/><g id="icon"><path d="M30,15h-2h-1.2l-0.9-4.6c-0.3-0.9-1.2-1.5-2.2-1.4c-1,0.1-1.7,0.9-1.7,1.8l-2.1,14.3L18.1,2.9l0-0.1c-0.2-0.9-1-1.6-2-1.6   c0,0,0,0-0.1,0c-1,0-1.8,0.7-1.9,1.7l-2,17.1L10,6.8C9.9,5.8,9.1,5.1,8.1,5C7.1,4.9,6.3,5.6,6,6.7L5.1,15H4c-0.7,0-1.3,0-2,0   c-1.3,0-1.3,2,0,2c0.7,0,1.3,0,2,0h1.1c1,0,1.9-0.8,2-1.8L8,7l2.2,13.4c0.1,1,0.9,1.7,1.9,1.7c1,0,1.8-0.6,2-1.7l2-17.1L18,25.3   c0.2,1,1,1.6,1.9,1.7c0,0,0,0,0,0c1,0,1.8-0.7,2-1.7L24,11.1l0.9,4.3c0.2,0.9,1,1.6,2,1.6H28h2C31.3,17,31.3,15,30,15z"/></g></svg>